<?xml version="1.0" encoding="utf-8"?>
<!-- Generator: Adobe Illustrator 21.0.0, SVG Export Plug-In . SVG Version: 6.00 Build 0)  -->
<svg version="1.1" id="Layer_1" xmlns="http://www.w3.org/2000/svg" xmlns:xlink="http://www.w3.org/1999/xlink" x="0px" y="0px"
	 viewBox="0 0 108 144" style="enable-background:new 0 0 108 144;" xml:space="preserve">
<style type="text/css">
	.st0{fill:url(#SVGID_1_);}
	.st1{fill:url(#SVGID_2_);}
	.st2{fill:#695C4D;}
	.st3{fill:url(#SVGID_3_);}
	.st4{fill:#8C7A66;}
	.st5{fill:#663B29;}
	.st6{fill:url(#SVGID_4_);}
	.st7{fill:#D49600;}
	.st8{fill:#D46300;}
	.st9{fill:#39441B;}
	.st10{fill:#556629;}
	.st11{fill:#AA8C33;}
	.st12{fill:#FFFFFF;}
	.st13{fill:#BFBFBF;}
	.st14{fill:#806926;}
	.st15{fill:#351900;}
	.st16{fill:#C6CFAF;}
	.st17{fill:#B2BB99;}
	.st18{fill:#9F7100;}
	.st19{fill:#463D33;}
	.st20{fill:#001055;}
</style>
<linearGradient id="SVGID_1_" gradientUnits="userSpaceOnUse" x1="73.422" y1="123.7423" x2="73.4013" y2="133.691">
	<stop  offset="0" style="stop-color:#4D4D4D"/>
	<stop  offset="0.3898" style="stop-color:#292929"/>
	<stop  offset="0.7795" style="stop-color:#0B0B0B"/>
	<stop  offset="1" style="stop-color:#000000"/>
</linearGradient>
<rect x="66.6" y="111.559" class="st0" width="13.629" height="31.794"/>
<linearGradient id="SVGID_2_" gradientUnits="userSpaceOnUse" x1="32.2559" y1="114.788" x2="32.4491" y2="130.3514">
	<stop  offset="0" style="stop-color:#4D4D4D"/>
	<stop  offset="0.3898" style="stop-color:#292929"/>
	<stop  offset="0.7795" style="stop-color:#0B0B0B"/>
	<stop  offset="1" style="stop-color:#000000"/>
</linearGradient>
<rect x="25.36" y="111.89" class="st1" width="14.069" height="28.182"/>
<polygon class="st2" points="104.775,87.8 98.593,90.518 70.443,44.187 79.014,40.484 "/>
<polygon class="st2" points="1.964,83.673 1.964,83.673 26.304,40.448 34.442,44.891 "/>
<linearGradient id="SVGID_3_" gradientUnits="userSpaceOnUse" x1="109.5832" y1="57.9942" x2="82.9301" y2="73.314">
	<stop  offset="0" style="stop-color:#695C4D"/>
	<stop  offset="0.4606" style="stop-color:#7B6B5A"/>
	<stop  offset="1" style="stop-color:#8C7A66"/>
</linearGradient>
<polygon class="st3" points="105.219,87.608 97.502,91.366 71.204,52.949 78.921,49.191 "/>
<polygon class="st4" points="1.881,83.609 9.332,87.083 34.046,52.522 26.595,49.048 "/>
<rect x="25.406" y="40.308" class="st4" width="55.043" height="10.282"/>
<rect x="27.699" y="6.192" class="st4" width="49.596" height="40.425"/>
<rect x="33.11" y="19.453" class="st5" width="13.761" height="2.979"/>
<rect x="57.837" y="19.453" class="st5" width="13.761" height="2.979"/>
<rect x="60.304" y="25.149" width="7.817" height="8.208"/>
<rect x="25.406" y="50.59" class="st4" width="55.043" height="41.602"/>
<linearGradient id="SVGID_4_" gradientUnits="userSpaceOnUse" x1="53.0701" y1="108.6697" x2="52.784" y2="98.6825">
	<stop  offset="0" style="stop-color:#4D4D4D"/>
	<stop  offset="0.3898" style="stop-color:#292929"/>
	<stop  offset="0.7795" style="stop-color:#0B0B0B"/>
	<stop  offset="1" style="stop-color:#000000"/>
</linearGradient>
<rect x="25.406" y="95.249" class="st6" width="55.043" height="16.874"/>
<polygon class="st7" points="95.731,88.778 103.448,85.02 101.731,82.512 94.014,86.269 "/>
<g>
	<path class="st4" d="M0.158,88.483l1.955-4.731l7.326,3.222L3.293,92l-1.915-0.842C0.22,90.649-0.282,89.548,0.158,88.483z"/>
	<polygon class="st4" points="7.003,88.985 6.764,91.88 3.445,91.947 5.224,90.466 	"/>
</g>
<polygon class="st4" points="99.964,95.183 108,91.402 104.996,87.16 96.96,90.942 "/>
<polygon class="st5" points="19.959,0 19.959,38.819 27.699,38.819 27.699,23.343 42.352,12.957 51.701,6.331 52.971,6.331 
	62.32,12.957 77.295,23.572 77.295,38.819 83.316,38.819 83.316,0 "/>
<polygon class="st7" points="10.736,85.119 3.285,81.646 4.943,79.327 12.394,82.801 "/>
<polygon class="st8" points="8.901,74.82 17.136,64.649 13.84,62.452 7.388,73.811 "/>
<polygon class="st9" points="12.357,65.147 7.937,72.103 9.945,73.287 15.622,67.072 "/>
<polygon class="st8" points="97.898,77.922 99.289,77.245 92.902,65.398 88.961,67.318 "/>
<polygon class="st9" points="96.458,75.863 98.312,74.998 93.94,67.415 90.361,69.084 "/>
<polygon class="st8" points="90.504,81.143 98.221,77.385 90.542,66.168 82.825,69.925 "/>
<polygon class="st10" points="89.15,79.165 96.867,75.407 91.94,68.21 84.223,71.968 "/>
<polygon class="st8" points="15.783,78.062 8.332,74.588 15.746,64.219 23.198,67.693 "/>
<polygon class="st10" points="17.091,76.233 9.639,72.76 14.396,66.107 21.848,69.581 "/>
<polygon class="st11" points="35.349,50.372 41.157,91.974 25.406,91.974 25.406,50.372 "/>
<polygon class="st11" points="70.506,50.59 64.698,92.309 80.449,92.309 80.449,50.59 "/>
<rect x="36.082" y="25.149" width="7.817" height="8.208"/>
<rect x="60.472" y="25.339" class="st12" width="3.226" height="1.767"/>
<rect x="36.036" y="25.339" class="st12" width="3.226" height="1.767"/>
<path class="st2" d="M52.497,53.313c13.696,0,24.798-3.204,24.798-7.156H27.699C27.699,50.109,38.802,53.313,52.497,53.313z"/>
<g>
	<polygon class="st12" points="25.326,40.324 25.326,40.365 36.174,40.365 32.421,50.433 25.326,50.53 25.326,50.533 35.646,50.392 
		39.399,40.324 	"/>
	<polygon class="st11" points="36.174,40.365 25.326,40.365 25.326,50.53 32.421,50.433 	"/>
</g>
<polygon class="st12" points="80.168,40.684 80.168,40.725 69.321,40.725 73.073,50.792 80.168,50.889 80.168,50.892 69.848,50.752 
	66.095,40.684 "/>
<polygon class="st12" points="32.339,50.372 35.566,50.372 41.157,91.974 37.835,91.974 "/>
<polygon class="st12" points="73.132,50.673 69.904,50.673 64.314,92.392 67.635,92.392 "/>
<polygon class="st11" points="69.321,40.725 80.449,40.725 80.449,50.892 73.17,50.796 "/>
<path class="st5" d="M27.699,34.46v11.697h49.596V34.46H27.699z M61.958,40.951H43.037v-2.979h18.921V40.951z"/>
<rect x="43.899" y="38.322" width="17.193" height="2.161"/>
<path class="st13" d="M71.332,46.157h-3.21l1.713,4.595l1.591,0.022c0.504-0.172,0.98-0.351,1.427-0.537L71.332,46.157z"/>
<path class="st14" d="M72.944,50.205c2.743-1.151,4.351-2.545,4.351-4.048h-5.898L72.944,50.205z"/>
<path class="st13" d="M34.053,46.157l-1.691,4.376c0.061,0.023,0.119,0.048,0.181,0.071l3.268-0.043l1.702-4.404H34.053z"/>
<path class="st14" d="M34.015,46.076h-6.316c0,1.574,1.764,3.027,4.747,4.209L34.015,46.076z"/>
<rect x="25.406" y="85.883" class="st15" width="55.043" height="9.697"/>
<g>
	<polygon class="st16" points="28.89,94.228 28.89,94.228 25.406,86.166 32.374,86.166 	"/>
	<polygon class="st16" points="76.236,94.228 76.236,94.228 72.752,86.166 79.72,86.166 	"/>
	<polygon class="st16" points="38.446,94.061 38.446,94.061 34.962,85.999 41.93,85.999 	"/>
	<polygon class="st17" points="67.044,94.228 67.044,94.228 63.56,86.166 70.528,86.166 	"/>
</g>
<path class="st18" d="M44.519,83.878v13.707h16.817V83.878H44.519z M58.524,95.389H47.095v-9.315h11.429V95.389z"/>
<rect x="61.622" y="55.338" class="st19" width="2.007" height="4.104"/>
<rect x="56.741" y="61.588" class="st19" width="2.007" height="4.104"/>
<rect x="53.12" y="56.038" class="st19" width="2.007" height="4.104"/>
<rect x="50.728" y="60.801" class="st19" width="2.007" height="4.104"/>
<rect x="42.226" y="61.501" class="st19" width="2.007" height="4.104"/>
<rect x="45.847" y="54.996" class="st19" width="2.007" height="4.104"/>
<rect x="39.141" y="55.338" class="st19" width="2.007" height="4.104"/>
<rect x="66.6" y="138.142" class="st20" width="13.629" height="5.858"/>
<rect x="25.714" y="134.798" class="st20" width="13.629" height="5.274"/>
</svg>
