<?xml version="1.0" encoding="utf-8"?>
<!-- Generator: Adobe Illustrator 21.0.0, SVG Export Plug-In . SVG Version: 6.00 Build 0)  -->
<svg version="1.1" id="Layer_1" xmlns="http://www.w3.org/2000/svg" xmlns:xlink="http://www.w3.org/1999/xlink" x="0px" y="0px"
	 viewBox="0 0 100.475 142" style="enable-background:new 0 0 100.475 142;" xml:space="preserve">
<style type="text/css">
	.st0{fill:url(#SVGID_1_);}
	.st1{fill:url(#SVGID_2_);}
	.st2{fill:url(#SVGID_3_);}
	.st3{fill:#695C4D;}
	.st4{fill:#8C7A66;}
	.st5{fill:#663B29;}
	.st6{fill:#D49600;}
	.st7{fill:#D46300;}
	.st8{fill:#39441B;}
	.st9{fill:#556629;}
	.st10{fill:#AA8C33;}
	.st11{fill:#FFFFFF;}
	.st12{fill:#BFBFBF;}
	.st13{fill:#806926;}
	.st14{fill:#351900;}
	.st15{fill:#C6CFAF;}
	.st16{fill:#B2BB99;}
	.st17{fill:#9F7100;}
	.st18{fill:#463D33;}
	.st19{fill:#001055;}
</style>
<linearGradient id="SVGID_1_" gradientUnits="userSpaceOnUse" x1="68.3179" y1="119.7498" x2="68.2903" y2="132.9616">
	<stop  offset="0" style="stop-color:#4D4D4D"/>
	<stop  offset="0.3898" style="stop-color:#292929"/>
	<stop  offset="0.7795" style="stop-color:#0B0B0B"/>
	<stop  offset="1" style="stop-color:#000000"/>
</linearGradient>
<rect x="62.059" y="108.48" class="st0" width="12.503" height="29.409"/>
<linearGradient id="SVGID_2_" gradientUnits="userSpaceOnUse" x1="29.492" y1="110.9929" x2="29.5977" y2="121.1962">
	<stop  offset="0" style="stop-color:#4D4D4D"/>
	<stop  offset="0.3898" style="stop-color:#292929"/>
	<stop  offset="0.7795" style="stop-color:#0B0B0B"/>
	<stop  offset="1" style="stop-color:#000000"/>
</linearGradient>
<rect x="23.556" y="108.468" class="st1" width="12.073" height="24.532"/>
<linearGradient id="SVGID_3_" gradientUnits="userSpaceOnUse" x1="49.3461" y1="105.2892" x2="48.6625" y2="95.9365">
	<stop  offset="0" style="stop-color:#4D4D4D"/>
	<stop  offset="0.3898" style="stop-color:#292929"/>
	<stop  offset="0.7795" style="stop-color:#0B0B0B"/>
	<stop  offset="1" style="stop-color:#000000"/>
</linearGradient>
<rect x="23.597" y="93.393" class="st2" width="50.899" height="15.609"/>
<polygon class="st3" points="97.014,86.58 91.29,89.261 65.225,43.574 73.161,39.921 "/>
<polygon class="st3" points="4.881,83.715 4.881,83.715 23.484,39.231 31.383,42.915 "/>
<polygon class="st4" points="97.425,86.391 90.28,90.097 65.929,52.214 73.075,48.508 "/>
<polygon class="st4" points="4.799,83.659 11.979,86.448 31.696,50.443 24.516,47.653 "/>
<rect x="23.524" y="39.748" class="st4" width="50.966" height="10.139"/>
<rect x="25.648" y="6.106" class="st4" width="45.922" height="39.864"/>
<rect x="30.658" y="19.183" class="st5" width="12.741" height="2.938"/>
<rect x="53.553" y="19.183" class="st5" width="12.741" height="2.938"/>
<rect x="55.837" y="24.8" width="7.238" height="8.094"/>
<rect x="23.524" y="49.887" class="st4" width="50.966" height="41.024"/>
<polygon class="st6" points="88.64,87.545 95.785,83.839 94.195,81.366 87.05,85.071 "/>
<g>
	<path class="st4" d="M3.644,88.589l1.382-4.809l7.042,2.553l-5.221,5.449l-1.841-0.667C3.893,90.711,3.333,89.671,3.644,88.589z"/>
	<polygon class="st4" points="10,88.511 10.037,91.374 6.982,91.716 8.491,90.113 	"/>
</g>
<polygon class="st4" points="92.559,93.861 100,90.132 97.218,85.95 89.777,89.679 "/>
<polygon class="st5" points="18.48,0 18.48,38.28 25.648,38.28 25.648,23.019 39.215,12.777 47.871,6.243 49.047,6.243 
	57.704,12.777 71.57,23.244 71.57,38.28 77.144,38.28 77.144,0 "/>
<polygon class="st6" points="13.099,84.403 5.919,81.614 7.242,79.198 14.422,81.987 "/>
<polygon class="st7" points="10.491,74.441 17.18,63.764 13.946,61.882 9.006,73.576 "/>
<polygon class="st8" points="12.818,64.652 9.36,71.853 11.318,72.848 16,66.27 "/>
<polygon class="st7" points="90.647,76.84 91.934,76.173 86.021,64.49 82.371,66.383 "/>
<polygon class="st8" points="89.313,74.809 91.03,73.956 86.982,66.479 83.668,68.125 "/>
<polygon class="st7" points="83.8,80.016 90.946,76.31 83.835,65.249 76.69,68.954 "/>
<polygon class="st9" points="82.546,78.065 89.692,74.36 85.13,67.263 77.984,70.968 "/>
<polygon class="st7" points="17.126,77.05 9.946,74.261 15.861,63.459 23.041,66.248 "/>
<polygon class="st9" points="18.169,75.145 10.989,72.356 14.784,65.425 21.964,68.215 "/>
<polygon class="st10" points="32.73,49.672 38.108,90.696 23.524,90.696 23.524,49.672 "/>
<polygon class="st10" points="65.283,49.887 59.906,91.026 74.49,91.026 74.49,49.887 "/>
<rect x="33.409" y="24.8" width="7.238" height="8.094"/>
<rect x="55.993" y="24.987" class="st11" width="2.987" height="1.743"/>
<rect x="33.367" y="24.987" class="st11" width="2.987" height="1.743"/>
<path class="st3" d="M48.609,52.572c12.681,0,22.961-3.159,22.961-7.057H25.648C25.648,49.413,35.928,52.572,48.609,52.572z"/>
<g>
	<polygon class="st11" points="23.45,39.764 23.45,39.805 33.494,39.805 30.02,49.732 23.45,49.828 23.45,49.831 33.006,49.692 
		36.481,39.764 	"/>
	<polygon class="st10" points="33.494,39.805 23.45,39.805 23.45,49.828 30.02,49.732 	"/>
</g>
<polygon class="st11" points="74.23,40.119 74.23,40.159 64.186,40.159 67.66,50.087 74.23,50.182 74.23,50.186 64.674,50.047 
	61.199,40.119 "/>
<polygon class="st11" points="29.943,49.672 32.932,49.672 38.108,90.696 35.033,90.696 "/>
<polygon class="st11" points="67.715,49.97 64.726,49.97 59.55,91.109 62.625,91.109 "/>
<polygon class="st10" points="64.186,40.159 74.49,40.159 74.49,50.186 67.75,50.09 "/>
<path class="st5" d="M25.648,33.981v11.534H71.57V33.981H25.648z M57.368,40.382H39.849v-2.938h17.519V40.382z"/>
<rect x="40.648" y="37.79" width="15.92" height="2.131"/>
<path class="st12" d="M66.048,45.516h-2.972l1.586,4.531l1.473,0.021c0.467-0.17,0.908-0.346,1.322-0.529L66.048,45.516z"/>
<path class="st13" d="M67.541,49.507c2.539-1.135,4.029-2.51,4.029-3.992h-5.462L67.541,49.507z"/>
<path class="st12" d="M31.531,45.516l-1.566,4.315c0.057,0.023,0.11,0.047,0.167,0.07l3.026-0.042l1.576-4.343H31.531z"/>
<path class="st13" d="M31.495,45.436h-5.848c0,1.552,1.634,2.985,4.395,4.15L31.495,45.436z"/>
<rect x="23.524" y="84.69" class="st14" width="50.966" height="9.563"/>
<g>
	<polygon class="st15" points="26.75,92.919 26.75,92.919 23.524,84.97 29.975,84.97 	"/>
	<polygon class="st15" points="70.589,92.919 70.589,92.919 67.363,84.97 73.815,84.97 	"/>
	<polygon class="st15" points="35.598,92.755 35.598,92.755 32.373,84.805 38.824,84.805 	"/>
	<polygon class="st16" points="62.078,92.919 62.078,92.919 58.852,84.97 65.304,84.97 	"/>
</g>
<path class="st17" d="M41.221,82.713V96.23h15.571V82.713H41.221z M54.189,94.064H43.607v-9.186h10.582V94.064z"/>
<rect x="57.057" y="54.569" class="st18" width="1.858" height="4.047"/>
<rect x="52.538" y="60.733" class="st18" width="1.858" height="4.047"/>
<rect x="49.186" y="55.259" class="st18" width="1.858" height="4.047"/>
<rect x="46.97" y="59.957" class="st18" width="1.858" height="4.047"/>
<rect x="39.099" y="60.647" class="st18" width="1.858" height="4.047"/>
<rect x="42.451" y="54.232" class="st18" width="1.858" height="4.047"/>
<rect x="36.242" y="54.569" class="st18" width="1.858" height="4.047"/>
<rect x="62.002" y="135.224" class="st19" width="12.619" height="5.776"/>
<rect x="23.306" y="130.925" class="st19" width="12.619" height="5.201"/>
</svg>
