<?xml version="1.0" encoding="utf-8"?>
<!-- Generator: Adobe Illustrator 21.0.0, SVG Export Plug-In . SVG Version: 6.00 Build 0)  -->
<svg version="1.1" id="Layer_1" xmlns="http://www.w3.org/2000/svg" xmlns:xlink="http://www.w3.org/1999/xlink" x="0px" y="0px"
	 viewBox="0 0 99 141" style="enable-background:new 0 0 99 141;" xml:space="preserve">
<style type="text/css">
	.st0{fill:#695C4D;}
	.st1{fill:#8C7A66;}
	.st2{fill:#663B29;}
	.st3{fill:#D49600;}
	.st4{fill:#D46300;}
	.st5{fill:#39441B;}
	.st6{fill:#556629;}
	.st7{fill:#AA8C33;}
	.st8{fill:#FFFFFF;}
	.st9{fill:#BFBFBF;}
	.st10{fill:#806926;}
	.st11{fill:#351900;}
	.st12{fill:#C6CFAF;}
	.st13{fill:#B2BB99;}
	.st14{fill:#9F7100;}
	.st15{fill:#463D33;}
	.st16{fill:#001055;}
	.st17{fill:url(#SVGID_1_);}
	.st18{fill:url(#SVGID_2_);}
	.st19{fill:url(#SVGID_3_);}
</style>
<polygon class="st0" points="95.753,87.084 89.92,89.955 60.97,45.798 69.059,41.881 "/>
<polygon class="st0" points="1.981,86.241 1.981,86.241 18.05,41.108 26.508,44.22 "/>
<polygon class="st1" points="96.172,86.881 88.906,90.82 62.058,54.312 69.324,50.373 "/>
<polygon class="st1" points="1.892,86.191 9.538,88.468 27.377,51.628 19.73,49.351 "/>
<rect x="18.586" y="41.324" class="st1" width="52.96" height="10.03"/>
<rect x="20.792" y="8.041" class="st1" width="47.719" height="39.438"/>
<rect x="25.999" y="20.978" class="st2" width="13.24" height="2.907"/>
<rect x="49.79" y="20.978" class="st2" width="13.24" height="2.907"/>
<rect x="52.164" y="26.535" width="7.521" height="8.007"/>
<rect x="18.586" y="51.354" class="st1" width="52.96" height="40.586"/>
<polygon class="st3" points="87.097,88.361 94.364,84.422 92.611,82.038 85.344,85.977 "/>
<g>
	<path class="st1" d="M1.051,91.134l1.085-4.838l7.486,2.052l-5.019,5.724l-1.957-0.537C1.463,93.211,0.806,92.222,1.051,91.134z"/>
	<polygon class="st1" points="7.635,90.635 7.881,93.458 4.739,93.998 6.187,92.317 	"/>
</g>
<polygon class="st1" points="91.428,94.454 99,90.48 95.939,86.452 88.367,90.426 "/>
<polygon class="st2" points="13.345,2 13.345,39.871 20.792,39.871 20.792,24.773 34.891,14.641 43.886,8.176 45.108,8.176 
	54.103,14.641 68.512,24.996 68.512,39.871 74.304,39.871 74.304,2 "/>
<polygon class="st3" points="10.552,86.375 2.905,84.099 4.102,81.627 11.749,83.904 "/>
<polygon class="st4" points="7.127,76.717 13.29,65.737 9.8,64.094 5.525,75.962 "/>
<polygon class="st5" points="8.831,66.903 5.767,74.238 7.869,75.09 12.248,68.288 "/>
<polygon class="st4" points="88.739,77.701 90.049,76.991 83.426,65.671 79.715,67.684 "/>
<polygon class="st5" points="87.271,75.745 89.018,74.835 84.506,67.6 81.133,69.355 "/>
<polygon class="st4" points="81.762,81.105 89.028,77.166 81.188,66.506 73.922,70.445 "/>
<polygon class="st6" points="80.379,79.225 87.645,75.286 82.616,68.447 75.35,72.386 "/>
<polygon class="st4" points="14.194,78.852 6.548,76.576 11.9,65.523 19.546,67.8 "/>
<polygon class="st6" points="15.138,76.903 7.492,74.627 10.926,67.535 18.572,69.812 "/>
<polygon class="st7" points="28.153,51.142 33.741,91.728 18.586,91.728 18.586,51.142 "/>
<polygon class="st7" points="61.979,51.354 56.391,92.054 71.546,92.054 71.546,51.354 "/>
<rect x="28.858" y="26.535" width="7.521" height="8.007"/>
<rect x="52.325" y="26.72" class="st8" width="3.104" height="1.724"/>
<rect x="28.814" y="26.72" class="st8" width="3.104" height="1.724"/>
<path class="st0" d="M44.652,54.011c13.177,0,23.86-3.126,23.86-6.981H20.792C20.792,50.885,31.475,54.011,44.652,54.011z"/>
<g>
	<polygon class="st8" points="18.509,41.34 18.509,41.379 28.946,41.379 25.336,51.201 18.509,51.296 18.509,51.299 28.439,51.162 
		32.049,41.34 	"/>
	<polygon class="st7" points="28.946,41.379 18.509,41.379 18.509,51.296 25.336,51.201 	"/>
</g>
<polygon class="st8" points="71.276,41.69 71.276,41.73 60.839,41.73 64.449,51.552 71.276,51.646 71.276,51.65 61.346,51.512 
	57.736,41.69 "/>
<polygon class="st8" points="25.257,51.142 28.362,51.142 33.741,91.728 30.545,91.728 "/>
<polygon class="st8" points="64.506,51.436 61.4,51.436 56.022,92.136 59.217,92.136 "/>
<polygon class="st7" points="60.839,41.73 71.546,41.73 71.546,51.65 64.543,51.555 "/>
<path class="st2" d="M20.792,35.618v11.411h47.719V35.618H20.792z M53.755,41.951H35.55v-2.907h18.205V41.951z"/>
<rect x="36.38" y="39.386" width="16.543" height="2.109"/>
<path class="st9" d="M62.774,47.029h-3.088l1.648,4.483l1.531,0.021c0.485-0.168,0.943-0.343,1.373-0.524L62.774,47.029z"/>
<path class="st10" d="M64.325,50.979c2.639-1.123,4.186-2.483,4.186-3.949h-5.675L64.325,50.979z"/>
<path class="st9" d="M26.906,47.029l-1.627,4.269c0.059,0.023,0.114,0.046,0.174,0.069l3.145-0.042l1.637-4.296H26.906z"/>
<path class="st10" d="M26.869,46.951h-6.077c0,1.535,1.697,2.954,4.567,4.106L26.869,46.951z"/>
<rect x="18.586" y="85.785" class="st11" width="52.96" height="9.461"/>
<g>
	<polygon class="st12" points="21.938,93.927 21.938,93.927 18.586,86.062 25.29,86.062 	"/>
	<polygon class="st12" points="67.492,93.927 67.492,93.927 64.14,86.062 70.844,86.062 	"/>
	<polygon class="st12" points="31.133,93.764 31.133,93.764 27.781,85.899 34.485,85.899 	"/>
	<polygon class="st13" points="58.648,93.927 58.648,93.927 55.296,86.062 62,86.062 	"/>
</g>
<path class="st14" d="M36.976,83.829v13.373h16.181V83.829H36.976z M50.45,95.059H39.454v-9.088H50.45V95.059z"/>
<rect x="53.431" y="55.986" class="st15" width="1.931" height="4.004"/>
<rect x="48.735" y="62.084" class="st15" width="1.931" height="4.004"/>
<rect x="45.252" y="56.669" class="st15" width="1.931" height="4.004"/>
<rect x="42.949" y="61.316" class="st15" width="1.931" height="4.004"/>
<rect x="34.77" y="61.999" class="st15" width="1.931" height="4.004"/>
<rect x="38.253" y="55.653" class="st15" width="1.931" height="4.004"/>
<rect x="31.801" y="55.986" class="st15" width="1.931" height="4.004"/>
<rect x="57.897" y="134.286" class="st16" width="13.113" height="6.714"/>
<rect x="18.584" y="131.234" class="st16" width="13.113" height="4.766"/>
<linearGradient id="SVGID_1_" gradientUnits="userSpaceOnUse" x1="64.6745" y1="124.2315" x2="64.6498" y2="136.0796">
	<stop  offset="0" style="stop-color:#4D4D4D"/>
	<stop  offset="0.3898" style="stop-color:#292929"/>
	<stop  offset="0.7795" style="stop-color:#0B0B0B"/>
	<stop  offset="1" style="stop-color:#000000"/>
</linearGradient>
<rect x="58.007" y="107.931" class="st17" width="13.349" height="26.369"/>
<linearGradient id="SVGID_2_" gradientUnits="userSpaceOnUse" x1="25.1222" y1="109.0832" x2="25.2037" y2="116.9574">
	<stop  offset="0" style="stop-color:#4D4D4D"/>
	<stop  offset="0.3898" style="stop-color:#292929"/>
	<stop  offset="0.7795" style="stop-color:#0B0B0B"/>
	<stop  offset="1" style="stop-color:#000000"/>
</linearGradient>
<rect x="18.448" y="107.921" class="st18" width="13.567" height="23.374"/>
<linearGradient id="SVGID_3_" gradientUnits="userSpaceOnUse" x1="45.3079" y1="105.1854" x2="44.6757" y2="96.5363">
	<stop  offset="0" style="stop-color:#4D4D4D"/>
	<stop  offset="0.3898" style="stop-color:#292929"/>
	<stop  offset="0.7795" style="stop-color:#0B0B0B"/>
	<stop  offset="1" style="stop-color:#000000"/>
</linearGradient>
<rect x="18.492" y="94.404" class="st19" width="53.08" height="13.995"/>
</svg>
