<?xml version="1.0" encoding="utf-8"?>
<!-- Generator: Adobe Illustrator 21.0.0, SVG Export Plug-In . SVG Version: 6.00 Build 0)  -->
<svg version="1.1" id="Layer_1" xmlns="http://www.w3.org/2000/svg" xmlns:xlink="http://www.w3.org/1999/xlink" x="0px" y="0px"
	 viewBox="0 0 108 144" style="enable-background:new 0 0 108 144;" xml:space="preserve">
<style type="text/css">
	.st0{fill:url(#SVGID_1_);}
	.st1{fill:url(#SVGID_2_);}
	.st2{fill:url(#SVGID_3_);}
	.st3{fill:#695C4D;}
	.st4{fill:#8C7A66;}
	.st5{fill:#663B29;}
	.st6{fill:#D49600;}
	.st7{fill:#D46300;}
	.st8{fill:#39441B;}
	.st9{fill:#556629;}
	.st10{fill:#AA8C33;}
	.st11{fill:#FFFFFF;}
	.st12{fill:#BFBFBF;}
	.st13{fill:#806926;}
	.st14{fill:#351900;}
	.st15{fill:#C6CFAF;}
	.st16{fill:#B2BB99;}
	.st17{fill:#9F7100;}
	.st18{fill:#463D33;}
	.st19{fill:#001055;}
</style>
<linearGradient id="SVGID_1_" gradientUnits="userSpaceOnUse" x1="72.8719" y1="122.759" x2="72.8461" y2="135.1396">
	<stop  offset="0" style="stop-color:#4D4D4D"/>
	<stop  offset="0.3898" style="stop-color:#292929"/>
	<stop  offset="0.7795" style="stop-color:#0B0B0B"/>
	<stop  offset="1" style="stop-color:#000000"/>
</linearGradient>
<rect x="66.005" y="109.864" class="st0" width="13.73" height="27.555"/>
<linearGradient id="SVGID_2_" gradientUnits="userSpaceOnUse" x1="32.185" y1="111.0085" x2="32.3179" y2="123.8455">
	<stop  offset="0" style="stop-color:#4D4D4D"/>
	<stop  offset="0.3898" style="stop-color:#292929"/>
	<stop  offset="0.7795" style="stop-color:#0B0B0B"/>
	<stop  offset="1" style="stop-color:#000000"/>
</linearGradient>
<rect x="25.316" y="109.852" class="st1" width="13.955" height="23.287"/>
<linearGradient id="SVGID_3_" gradientUnits="userSpaceOnUse" x1="52.6968" y1="105.8938" x2="52.5876" y2="96.8418">
	<stop  offset="0" style="stop-color:#4D4D4D"/>
	<stop  offset="0.3898" style="stop-color:#292929"/>
	<stop  offset="0.7795" style="stop-color:#0B0B0B"/>
	<stop  offset="1" style="stop-color:#000000"/>
</linearGradient>
<rect x="25.361" y="95.188" class="st2" width="54.596" height="15.184"/>
<polygon class="st3" points="104.699,87.819 98.626,90.672 69.422,44.747 77.843,40.855 "/>
<polygon class="st3" points="1.953,83.998 1.953,83.998 26.154,40.605 34.246,45.065 "/>
<polygon class="st4" points="105.136,87.617 97.564,91.545 70.409,53.524 77.981,49.596 "/>
<polygon class="st4" points="1.87,83.933 9.279,87.42 33.852,52.725 26.443,49.238 "/>
<rect x="25.261" y="40.465" class="st4" width="54.729" height="10.321"/>
<rect x="27.541" y="6.216" class="st4" width="49.313" height="40.582"/>
<rect x="32.921" y="19.529" class="st5" width="13.682" height="2.991"/>
<rect x="57.506" y="19.529" class="st5" width="13.682" height="2.991"/>
<rect x="59.96" y="25.246" width="7.773" height="8.24"/>
<rect x="25.261" y="50.786" class="st4" width="54.729" height="41.763"/>
<polygon class="st6" points="95.735,88.984 103.307,85.056 101.534,82.573 93.962,86.501 "/>
<g>
	<path class="st4" d="M0.157,88.826l1.944-4.749l7.284,3.234l-6.111,5.046L1.37,91.511C0.219,91-0.28,89.895,0.157,88.826z"/>
	<polygon class="st4" points="6.963,89.33 6.725,92.236 3.425,92.303 5.194,90.816 	"/>
</g>
<polygon class="st4" points="100.112,95.327 108,91.368 104.902,87.172 97.013,91.131 "/>
<polygon class="st5" points="19.845,0 19.845,38.969 27.541,38.969 27.541,23.434 42.11,13.007 51.406,6.355 52.669,6.355 
	61.964,13.007 76.854,23.663 76.854,38.969 82.84,38.969 82.84,0 "/>
<polygon class="st6" points="10.675,85.449 3.266,81.962 4.915,79.635 12.324,83.122 "/>
<polygon class="st7" points="8.85,75.11 17.038,64.899 13.761,62.694 7.346,74.097 "/>
<polygon class="st8" points="12.286,65.399 7.891,72.382 9.888,73.571 15.533,67.332 "/>
<polygon class="st7" points="97.603,78.045 98.967,77.338 92.306,65.578 88.439,67.584 "/>
<polygon class="st8" points="96.117,76.007 97.938,75.102 93.391,67.581 89.878,69.329 "/>
<polygon class="st7" points="90.338,81.428 97.91,77.5 89.981,66.398 82.409,70.326 "/>
<polygon class="st9" points="88.94,79.47 96.512,75.542 91.424,68.419 83.853,72.347 "/>
<polygon class="st7" points="15.693,78.364 8.284,74.877 15.656,64.468 23.065,67.955 "/>
<polygon class="st9" points="16.993,76.529 9.584,73.042 14.314,66.364 21.723,69.85 "/>
<polygon class="st10" points="35.147,50.567 40.922,92.33 25.261,92.33 25.261,50.567 "/>
<polygon class="st10" points="70.103,50.786 64.328,92.666 79.989,92.666 79.989,50.786 "/>
<rect x="35.876" y="25.246" width="7.773" height="8.24"/>
<rect x="60.127" y="25.437" class="st11" width="3.208" height="1.774"/>
<rect x="35.83" y="25.437" class="st11" width="3.208" height="1.774"/>
<path class="st3" d="M52.198,53.52c13.617,0,24.656-3.216,24.656-7.184H27.541C27.541,50.303,38.58,53.52,52.198,53.52z"/>
<g>
	<polygon class="st11" points="25.181,40.481 25.181,40.522 35.967,40.522 32.236,50.628 25.181,50.726 25.181,50.729 
		35.443,50.588 39.174,40.481 	"/>
	<polygon class="st10" points="35.967,40.522 25.181,40.522 25.181,50.726 32.236,50.628 	"/>
</g>
<polygon class="st11" points="79.71,40.842 79.71,40.882 68.925,40.882 72.656,50.989 79.71,51.086 79.71,51.09 69.449,50.948 
	65.718,40.842 "/>
<polygon class="st11" points="32.154,50.567 35.363,50.567 40.922,92.33 37.619,92.33 "/>
<polygon class="st11" points="72.714,50.87 69.505,50.87 63.947,92.75 67.249,92.75 "/>
<polygon class="st10" points="68.925,40.882 79.989,40.882 79.989,51.09 72.752,50.992 "/>
<path class="st5" d="M27.541,34.594v11.742h49.313V34.594H27.541z M61.604,41.11H42.791v-2.991h18.813V41.11z"/>
<rect x="43.649" y="38.471" width="17.095" height="2.17"/>
<path class="st12" d="M70.924,46.336h-3.192l1.703,4.613l1.582,0.022c0.501-0.173,0.975-0.353,1.419-0.539L70.924,46.336z"/>
<path class="st13" d="M72.528,50.399c2.727-1.156,4.326-2.555,4.326-4.064h-5.865L72.528,50.399z"/>
<path class="st12" d="M33.859,46.336l-1.681,4.393c0.061,0.023,0.118,0.048,0.18,0.071l3.25-0.043l1.692-4.421H33.859z"/>
<path class="st13" d="M33.821,46.255h-6.28c0,1.58,1.754,3.039,4.72,4.225L33.821,46.255z"/>
<rect x="25.261" y="86.215" class="st14" width="54.729" height="9.735"/>
<g>
	<polygon class="st15" points="28.725,94.593 28.725,94.593 25.261,86.5 32.189,86.5 	"/>
	<polygon class="st15" points="75.8,94.593 75.8,94.593 72.337,86.5 79.264,86.5 	"/>
	<polygon class="st15" points="38.227,94.426 38.227,94.426 34.763,86.333 41.691,86.333 	"/>
	<polygon class="st16" points="66.661,94.593 66.661,94.593 63.197,86.5 70.125,86.5 	"/>
</g>
<path class="st17" d="M44.265,84.203v13.76h16.721v-13.76H44.265z M58.189,95.759H46.826v-9.351h11.363V95.759z"/>
<rect x="61.269" y="55.552" class="st18" width="1.995" height="4.12"/>
<rect x="56.416" y="61.827" class="st18" width="1.995" height="4.12"/>
<rect x="52.817" y="56.255" class="st18" width="1.995" height="4.12"/>
<rect x="50.438" y="61.037" class="st18" width="1.995" height="4.12"/>
<rect x="41.985" y="61.74" class="st18" width="1.995" height="4.12"/>
<rect x="45.585" y="55.209" class="st18" width="1.995" height="4.12"/>
<rect x="38.918" y="55.552" class="st18" width="1.995" height="4.12"/>
<rect x="66.033" y="137.12" class="st19" width="13.737" height="5.88"/>
<rect x="25.316" y="133.204" class="st19" width="13.924" height="5.294"/>
</svg>
